<?xml version="1.0" encoding="utf-8"?>
<!-- Svg Vector Icons : http://www.onlinewebfonts.com/icon -->
<!DOCTYPE svg PUBLIC "-//W3C//DTD SVG 1.1//EN" "http://www.w3.org/Graphics/SVG/1.1/DTD/svg11.dtd">
<svg version="1.1" xmlns="http://www.w3.org/2000/svg" xmlns:xlink="http://www.w3.org/1999/xlink" x="0px" y="0px" viewBox="0 0 1000 1000" enable-background="new 0 0 1000 1000" xml:space="preserve">
<metadata> Svg Vector Icons : http://www.onlinewebfonts.com/icon </metadata>
<g><g transform="translate(0.000000,511.000000) scale(0.100000,-0.100000)"><path d="M1353.9,3327.7c-38.4-26.9-92.1-92.1-126.6-159.2C1110.3,2947.9,141.6,811.1,116.6,719C59.1,511.8,145.4,396.8,460,260.6c239.8-105.5,297.3-111.3,376-36.5c74.8,71,1287.1,2727.7,1287.1,2819.7c0,94-74.8,153.5-314.6,249.4C1564.9,3389.1,1457.5,3398.7,1353.9,3327.7z"/><path d="M8174.9,3285.5c-326.1-132.4-352.9-189.9-222.5-470c40.3-88.2,316.5-696.3,615.7-1350.4c569.7-1252.6,592.7-1294.8,711.6-1294.8c63.3,0,347.2,113.2,462.3,186.1c124.7,76.7,180.3,203.3,149.6,341.4c-17.3,76.7-1022.4,2298-1127.9,2491.7C8648.7,3398.7,8508.7,3423.7,8174.9,3285.5z"/><path d="M2391.6,2884.6c0-17.3-30.7-99.8-69.1-184.1c-40.3-82.5-67.1-155.4-63.3-159.2c3.8-3.8,90.1-21.1,189.9-38.4c274.3-48,799.9-76.7,1076.1-61.4l241.7,15.4l124.7,97.8c67.1,55.6,172.6,143.9,234,199.5l113.2,99.7l-727-3.8c-617.7-3.8-755.8,1.9-913.1,30.7C2372.4,2921.1,2391.6,2919.2,2391.6,2884.6z"/><path d="M5009.9,2817.5c-312.7-24.9-372.1-51.8-682.9-326.1c-259-228.3-462.3-362.5-824.8-542.8c-324.2-161.1-470-270.5-533.3-402.8c-48-99.7-51.8-241.7-9.6-331.9c65.2-138.1,306.9-297.3,535.2-351c147.7-36.4,441.2-28.8,629.2,15.3c291.6,69.1,592.7,222.5,865.1,441.2c40.3,32.6,82.5,53.7,95.9,46c111.3-67.1,1427.1-901.5,1785.8-1133.6c493-318.4,619.6-385.6,815.2-439.3c168.8-44.1,443.1-44.1,558.2,0c120.9,46,184.2,120.9,333.8,397.1l130.4,239.8l-28.8,76.7c-26.8,71-972.5,2140.7-1012.8,2215.5c-17.3,32.6-24.9,32.6-109.3,7.7c-168.8-51.8-531.3-105.5-715.5-107.4c-134.3-1.9-291.6,19.2-604.2,76.7C5623.7,2811.8,5326.4,2840.5,5009.9,2817.5z"/><path d="M1330.9,531c-15.4-34.5-59.5-128.5-95.9-209.1l-67.1-145.8l189.9-291.6c105.5-161.1,218.7-329.9,253.2-376l63.3-82.5l65.2,124.7c34.5,69.1,82.5,153.5,107.4,188L1889-196l-230.2,351c-126.6,193.7-247.4,370.2-266.6,395.1l-34.5,46L1330.9,531z"/><path d="M5978.6,93.7c0-13.4-30.7-101.7-69.1-195.7c-38.4-94-63.3-178.4-53.7-186.1c9.6-7.7,379.8-272.4,822.9-587c443.1-316.5,828.7-596.6,859.3-625.3c59.5-59.5,67.1-134.3,24.9-237.9c-59.5-140-249.4-186.1-416.2-99.7c-65.2,32.6-1195,834.4-1525,1081.9l-57.5,42.2l-117-157.3c-90.1-120.8-113.2-163-95.9-180.3c13.4-11.5,354.9-259,761.5-550.5c406.7-291.6,753.8-554.4,771.1-583.1c105.5-163-42.2-320.3-268.5-285.8c-120.8,21.1-366.4,157.3-627.3,351c-136.2,101.7-412.4,305-610,452.7c-197.6,147.7-366.4,264.7-376,260.9c-24.9-9.6-306.9-235.9-306.9-245.5s980.2-740.4,1093.4-815.2c51.8-34.5,57.5-46,47.9-113.2c-5.8-46-28.8-95.9-63.3-130.4c-49.9-51.8-61.4-55.6-159.2-49.9c-122.8,9.6-262.8,72.9-560.1,253.2l-203.3,122.7l-76.7-186.1l-74.8-188l203.3-122.8c638.8-383.6,1060.8-362.5,1279.4,63.3l36.5,71l86.3-38.4c245.5-111.3,481.5-117,684.8-17.3c193.7,95.9,331.8,293.5,331.8,473.8c0,36.5,9.6,44.1,53.7,44.1c88.3,0,237.9,51.8,333.8,115.1c159.2,105.5,283.9,347.2,283.9,548.6c0,76.7,3.8,82.5,67.1,103.6c101.7,32.6,268.5,197.6,329.9,322.2c49.9,99.7,53.7,128.5,53.7,320.3c0,174.6-7.7,226.3-40.3,299.2l-42.2,90.1l-101.7-36.4c-57.5-19.2-149.6-34.5-205.3-36.4c-57.5,0-99.7-5.8-95.9-13.4c105.5-207.2,124.7-345.3,65.2-462.3c-51.8-101.7-188-147.7-285.8-95.9C7705-1112.9,6097.5,26.5,6003.5,99.4C5986.3,110.9,5978.6,109,5978.6,93.7z"/><path d="M2320.6-249.7c-138.1-63.3-235.9-189.9-399-506.4c-136.2-266.6-149.6-305-151.5-408.6c-1.9-149.6,44.1-224.4,170.7-285.8c132.4-63.3,234-74.8,333.8-40.3c80.6,26.8,82.5,26.8,69.1-13.4c-7.7-23-17.3-107.4-21.1-186.1c-9.6-122.8-3.8-153.5,30.7-207.2c86.3-140,364.5-182.2,552.4-84.4c92.1,48,95.9,40.3,42.2-74.8c-78.6-174.6-30.7-318.4,136.2-408.6c126.6-71,268.5-82.5,406.6-34.5c97.8,32.6,109.3,32.6,97.8,5.8c-84.4-207.2-30.7-351,168.8-450.8c128.5-65.2,259-65.2,389.4-3.8c124.7,57.5,191.8,128.5,268.5,282c178.4,352.9,163,640.7-40.3,798c-76.7,57.5-226.3,80.6-293.5,44.1c-24.9-11.5-46-19.2-49.9-15.3c-5.7,3.8,3.8,49.9,19.2,101.7c15.3,49.9,28.8,153.5,28.8,230.2c0,239.8-130.4,425.8-314.6,445c-115.1,13.4-170.7-1.9-255.1-76.7c-53.7-46-67.1-51.8-55.6-23c42.2,107.4,69.1,301.2,51.8,374c-40.3,182.2-191.8,306.9-370.2,306.9c-99.7,0-199.5-57.5-295.4-168.8l-59.5-69.1v117c-1.9,220.6-145.8,391.3-328,389.4C2424.2-213.2,2364.8-230.5,2320.6-249.7z"/></g></g>
</svg>